<?xml version="1.0" encoding="iso-8859-1"?>
<!-- Uploaded to: SVG Repo, www.svgrepo.com, Generator: SVG Repo Mixer Tools -->
<svg height="800px" width="800px" version="1.1" id="Layer_1" xmlns="http://www.w3.org/2000/svg" xmlns:xlink="http://www.w3.org/1999/xlink" 
	 viewBox="0 0 419.58 419.58" xml:space="preserve">
<g>
	<path style="fill:#2488FF;" d="M214.321,366.664c-80.987,0-146.874-65.887-146.874-146.874h-40
		c0,103.042,83.832,186.874,186.874,186.874c30.084,0,59.991-7.324,86.488-21.181c18.772-9.816,35.861-22.917,50.335-38.451
		l-28.364-28.228C295.113,349.028,255.683,366.664,214.321,366.664z"/>
	<polygon style="fill:#2488FF;" points="328.63,324.62 419.58,415.14 419.58,233.66 	"/>
	<polygon style="fill:#005ECE;" points="237.23,233.66 328.63,324.62 419.58,233.66 	"/>
	<path style="fill:#2488FF;" d="M96.801,100.774c27.667-30.222,67.097-47.858,108.458-47.858
		c80.987,0,146.874,65.887,146.874,146.874h40c0-103.042-83.832-186.874-186.874-186.874c-30.084,0-59.991,7.324-86.488,21.181
		c-18.771,9.816-35.86,22.916-50.333,38.449L90.96,94.96L0,185.92h182.35L96.801,100.774z"/>
	<polygon style="fill:#005ECE;" points="90.96,94.96 68.437,72.546 0,4.44 0,185.92 	"/>
</g>
</svg>